<svg viewBox="1.79300206876202 -55.774625761112326 211.5876105362271 56.05797766490237" width="211.5876105362271" height="56.05797766490237" xmlns="http://www.w3.org/2000/svg"><path d="M16.920-39.024C17.424-38.880 20.232-38.736 20.736-38.736C22.608-38.664 23.400-39.384 23.400-41.184C23.472-41.328 23.400-42.552 23.400-42.696C23.400-44.640 23.328-44.424 23.256-45.792C23.112-47.088 22.896-48.312 22.392-49.464C21.600-51.264 20.448-52.488 19.008-53.496C16.416-55.008 13.032-55.440 10.008-54.936C8.064-54.648 6.336-54.000 4.752-52.776C3.744-51.912 3.024-50.832 2.664-49.536C2.160-47.808 2.016-46.080 2.160-44.208C2.304-41.112 2.952-38.088 4.752-35.424C5.040-35.064 5.256-34.560 5.472-34.128C6.264-32.472 6.984-31.248 8.280-29.376C9.072-28.368 9.648-27.288 10.296-26.208C11.088-24.768 11.952-23.328 12.888-21.960C14.040-20.448 14.904-18.864 15.768-17.280C16.488-15.912 17.136-13.968 17.064-12.384C16.992-11.016 16.272-9.432 15.264-8.712C13.680-7.632 11.736-8.208 10.728-9.000C9.720-9.936 9.720-11.304 9.504-13.104C9.504-14.616 9.648-15.984 9.792-17.208C9.864-18.144 9.720-18.432 8.784-18.792C7.488-19.224 6.192-19.584 4.824-19.872C4.608-19.872 4.320-19.872 4.104-19.872C3.312-19.872 2.736-19.512 2.376-18.792C2.232-18.360 1.728-14.976 1.800-12.888C1.800-10.728 2.376-8.784 3.096-6.840C3.240-6.480 3.456-6.120 3.672-5.760C4.320-4.608 5.400-3.816 6.336-2.880C7.560-1.872 8.424-1.296 9.720-0.936C11.448-0.432 13.248-0.432 15.120-0.432C16.920-0.432 18.432-1.080 19.872-2.088C20.232-2.376 20.520-2.664 20.880-2.952C23.040-4.824 24.336-7.128 24.552-10.008C24.624-11.160 24.624-12.312 24.552-13.464C24.192-18.216 22.392-22.464 19.440-26.280C18.432-27.576 17.856-28.440 16.488-30.240C15.984-31.176 15.408-32.040 14.760-32.904C13.824-34.344 12.744-35.712 11.808-37.080C10.800-38.520 10.224-40.104 9.936-41.832C9.792-42.984 9.648-45.720 10.584-46.656C11.664-47.808 13.680-48.024 14.544-47.304C15.336-46.800 15.624-46.152 15.912-45.504C16.056-45.288 16.200-43.992 16.200-43.056C16.272-41.688 16.128-41.472 16.056-40.320C15.984-39.528 16.200-39.240 16.920-39.024ZM28.512-34.344C28.440-32.400 28.584-21.240 28.872-17.496C28.944-15.768 28.944-13.968 29.160-12.240C29.520-9.144 30.456-6.264 32.328-3.672C32.904-2.808 33.624-2.088 34.488-1.512C38.376 1.440 43.776 0.504 46.368-2.520C47.664-4.032 48.528-5.760 48.888-7.560C49.320-9.576 49.680-11.592 50.040-13.536C50.400-15.696 50.688-17.856 50.688-20.016C50.760-21.240 50.760-22.464 50.760-23.688C50.832-26.496 51.120-29.232 50.904-32.040C50.760-34.200 50.904-36.360 50.904-38.520C50.976-40.896 50.832-43.272 50.688-45.648C50.616-46.656 50.544-47.664 50.616-48.672C50.688-50.328 50.544-51.984 50.400-53.712C50.328-54.576 49.968-54.864 49.032-54.936C48.600-55.008 42.840-55.224 39.528-55.152C36.504-55.224 29.880-55.512 29.808-55.512C29.232-55.512 28.944-55.224 28.800-54.792C28.800-54.504 28.800-54.144 28.728-53.856C28.728-52.056 28.800-46.872 28.656-46.152C28.368-44.424 28.512-36.576 28.512-34.344ZM64.584-31.104C65.232-29.088 66.024-27.144 66.456-25.056C67.536-20.232 69.120-15.480 69.840-10.584C70.128-7.920 71.064-5.472 71.208-2.808C71.280-2.016 71.712-1.512 72.432-1.152C72.792-0.936 73.224-0.792 73.656-0.720C75.528-0.360 76.032-0.288 77.904-0.432C78.120-0.432 78.840-0.504 79.056-0.504C79.920-0.576 80.928-0.792 81.144-1.584C81.360-2.232 81.432-7.200 81.288-10.080C81.432-13.968 81.288-17.712 81.288-20.232C81.288-21.312 81.576-29.304 81.576-30.456C81.504-36.720 81.864-40.824 81.792-47.088C81.792-49.320 81.936-51.480 82.152-53.640C82.296-54.648 81.648-55.656 80.280-55.728C78.984-55.872 76.320-55.656 75.528-55.440C74.016-55.224 73.800-54.648 73.728-54.072C73.656-53.640 73.656-53.280 73.656-52.920C73.656-51.120 73.728-49.968 73.656-47.592C73.728-45.504 73.872-44.280 73.944-42.336C73.872-40.896 73.944-36.792 73.944-35.352C73.800-32.400 73.944-31.032 73.872-29.736C74.016-26.208 74.232-21.888 73.584-22.680C73.296-23.616 73.080-24.336 72.864-25.056C72.288-27.288 68.976-40.032 68.616-41.616C68.112-43.848 67.464-46.008 66.816-48.240C66.168-50.328 65.880-55.152 64.512-55.584C64.152-55.656 63.792-55.728 63.504-55.728C61.920-55.728 60.336-55.656 58.752-55.656C58.032-55.656 57.312-55.368 56.664-55.152C56.232-54.936 56.016-54.720 55.944-54.288C55.872-53.424 55.728-52.560 55.728-51.696C55.728-50.400 55.728-49.032 55.728-47.664C55.800-46.080 55.800-44.424 55.872-42.840C55.944-41.616 55.944-40.392 55.872-39.096C55.872-37.440 56.160-27.000 56.304-24.696C56.520-19.224 56.160-9.648 56.088-8.064C56.088-7.776 55.872-2.232 55.944-1.944C55.944-1.512 56.160-1.224 56.520-1.008C56.808-0.864 57.168-0.720 57.456-0.576C59.328-0.072 60.840 0 63.144-0.216C63.720-0.360 64.080-0.648 64.296-1.152C64.584-2.016 64.800-2.880 64.800-3.816C64.800-4.824 64.800-5.832 64.728-6.840C64.728-7.920 64.584-17.208 64.512-18.936C64.440-20.808 64.512-22.680 64.368-24.552C64.296-26.712 63.864-31.680 64.584-31.104ZM86.256-22.752C86.256-21.024 85.968-13.320 86.184-8.424C86.184-8.208 86.112-4.752 86.832-4.248C86.760-3.816 88.632-4.032 90.936-4.176C93.600-4.608 96.336-6.480 98.352-7.704C100.368-9.360 100.944-9.936 102.888-12.528C104.040-14.400 104.976-16.200 105.408-17.640C105.768-18.792 106.128-19.944 106.344-21.096C106.776-23.256 107.136-25.488 106.992-27.720C106.920-28.800 106.344-35.208 105.696-37.224C104.832-39.888 104.184-41.184 102.528-43.200C101.376-44.712 100.080-46.512 97.488-48.024C95.040-49.320 93.600-49.896 93.168-50.040C91.656-50.688 88.416-50.904 87.696-50.904C87.408-50.832 87.192-50.688 87.048-50.472C86.976-50.184 86.976-49.968 86.904-49.680C86.832-48.816 86.760-47.880 86.688-47.016C86.616-46.296 86.400-37.080 86.256-36.144C86.112-35.424 86.184-25.560 86.256-22.752ZM119.160-14.544C119.160-15.624 119.232-16.560 119.160-17.712C119.016-19.368 119.016-20.304 119.016-21.600C119.160-24.192 118.944-26.712 119.160-29.304C119.232-30.456 119.232-31.680 119.304-32.904C119.376-36.072 119.592-38.448 119.376-41.688C119.304-42.120 119.304-44.208 119.304-44.568C119.448-45.864 119.376-46.440 119.304-47.880C119.232-49.896 119.304-51.984 118.800-54.072C118.584-55.008 118.296-55.368 117.216-55.440C116.352-55.440 115.488-55.512 114.624-55.512C113.976-55.512 113.328-55.512 112.680-55.440C112.104-55.368 111.672-55.080 111.528-54.504C111.312-53.712 111.096-52.992 111.024-52.200C110.880-50.112 110.952-47.952 111.024-45.864C111.024-44.424 111.240-42.984 111.168-41.544C111.024-39.240 111.096-37.008 111.168-35.064C111.168-33.552 111.240-32.328 111.312-31.176C111.384-29.304 111.240-27.360 111.168-25.488C111.024-23.328 110.880-21.168 110.952-19.008C111.096-15.696 111.240-12.384 111.024-9.072C110.880-7.056 111.096-5.112 111.024-3.024C111.024-2.664 111.024-2.232 111.096-1.872C111.096-1.296 111.384-0.720 111.816-0.432C112.248-0.144 112.680-0.144 113.544-0.144C115.200-0.072 116.136 0.072 118.152-0.288C119.736-0.576 119.736-0.792 119.592-3.312C119.448-7.056 119.304-10.800 119.160-14.544ZM134.928-51.840C133.992-52.920 132.840-53.712 131.544-54.360C129.888-55.296 128.160-55.584 126.288-55.440C124.992-55.440 123.624-55.152 122.328-55.008C121.248-54.864 120.960-54.648 120.816-53.568C120.672-52.632 120.528-51.696 120.600-50.760C120.672-48.816 120.744-46.872 120.744-44.928C120.816-44.064 120.888-43.200 120.816-42.408C120.672-41.112 120.744-39.888 120.816-38.592C120.816-37.584 120.888-36.648 120.888-35.640C120.888-34.704 121.392-34.200 122.184-33.912C122.904-33.624 123.696-33.480 124.488-33.552C127.584-33.624 130.392-34.560 132.696-36.648C133.560-37.512 134.496-38.376 135.072-39.456C136.008-41.256 136.728-43.128 136.944-45.144C137.232-47.664 136.584-49.896 134.928-51.840ZM135.360-5.328C134.424-8.784 133.344-12.240 132.624-15.840C132.264-17.208 131.904-18.576 131.688-19.944C131.040-23.760 130.320-27.504 129.456-31.176C129.240-31.824 128.880-32.256 128.304-32.400C127.944-32.544 127.512-32.616 127.152-32.616C126.432-32.616 125.784-32.688 125.064-32.688C124.272-32.688 123.552-32.688 122.760-32.688C121.824-32.616 121.248-31.896 121.464-31.104C122.112-28.296 122.400-25.488 123.048-22.680C123.336-21.528 123.696-20.376 123.912-19.152C124.200-17.424 124.488-15.696 124.776-13.896C125.280-11.088 125.712-8.352 126.216-5.544C126.360-4.536 126.504-3.456 126.576-2.448C126.792-0.720 126.936-0.504 128.304-0.216C129.240 0 130.392-0.144 131.328-0.144C132.408-0.216 133.776-0.216 134.784-0.576C135.792-0.864 136.008-1.008 135.864-2.160C135.720-3.528 135.648-4.248 135.360-5.328ZM150.840-4.176C150.624-8.424 150.624-11.232 150.768-15.336C150.768-15.408 151.056-19.584 150.984-21.528C150.912-25.560 150.840-40.824 150.840-43.128C150.840-43.920 150.552-44.424 149.544-44.568C148.032-44.712 146.520-44.784 145.008-44.712C144.720-44.640 144.432-44.640 144.144-44.568C143.712-44.424 143.352-44.208 143.280-43.704C143.208-43.128 143.136-42.624 143.136-42.048C143.064-41.040 143.136-40.032 143.136-38.952C143.064-36.720 143.136-27.432 143.208-25.344C143.208-23.256 143.280-21.240 143.208-19.152C143.136-17.712 143.064-16.272 143.064-14.760C142.920-11.520 142.848-8.208 142.704-4.968C142.632-3.672 142.704-2.232 142.920-1.152C142.992-0.576 143.280-0.216 143.856-0.144C145.872 0.216 147.960 0.216 149.976-0.072C150.552-0.144 150.840-0.504 151.056-1.008C151.200-1.440 151.272-1.944 151.128-2.448C151.056-3.024 150.912-3.600 150.840-4.176ZM149.760-55.152C149.616-55.296 149.472-55.368 149.328-55.368C147.456-56.016 145.656-55.728 144.144-54.432C142.848-53.352 142.344-51.840 142.560-50.184C142.848-48.240 144.936-46.728 146.880-46.728C147.456-46.800 148.752-46.944 149.256-47.232C150.696-47.952 151.200-48.744 151.416-50.256C151.776-52.272 150.984-54.360 149.760-55.152ZM165.888-31.104C166.536-29.088 167.328-27.144 167.760-25.056C168.840-20.232 170.424-15.480 171.144-10.584C171.432-7.920 172.368-5.472 172.512-2.808C172.584-2.016 173.016-1.512 173.736-1.152C174.096-0.936 174.528-0.792 174.960-0.720C176.832-0.360 177.336-0.288 179.208-0.432C179.424-0.432 180.144-0.504 180.360-0.504C181.224-0.576 182.232-0.792 182.448-1.584C182.664-2.232 182.736-7.200 182.592-10.080C182.736-13.968 182.592-17.712 182.592-20.232C182.592-21.312 182.880-29.304 182.880-30.456C182.808-36.720 183.168-40.824 183.096-47.088C183.096-49.320 183.240-51.480 183.456-53.640C183.600-54.648 182.952-55.656 181.584-55.728C180.288-55.872 177.624-55.656 176.832-55.440C175.320-55.224 175.104-54.648 175.032-54.072C174.960-53.640 174.960-53.280 174.960-52.920C174.960-51.120 175.032-49.968 174.960-47.592C175.032-45.504 175.176-44.280 175.248-42.336C175.176-40.896 175.248-36.792 175.248-35.352C175.104-32.400 175.248-31.032 175.176-29.736C175.320-26.208 175.536-21.888 174.888-22.680C174.600-23.616 174.384-24.336 174.168-25.056C173.592-27.288 170.280-40.032 169.920-41.616C169.416-43.848 168.768-46.008 168.120-48.240C167.472-50.328 167.184-55.152 165.816-55.584C165.456-55.656 165.096-55.728 164.808-55.728C163.224-55.728 161.640-55.656 160.056-55.656C159.336-55.656 158.616-55.368 157.968-55.152C157.536-54.936 157.320-54.720 157.248-54.288C157.176-53.424 157.032-52.560 157.032-51.696C157.032-50.400 157.032-49.032 157.032-47.664C157.104-46.080 157.104-44.424 157.176-42.840C157.248-41.616 157.248-40.392 157.176-39.096C157.176-37.440 157.464-27.000 157.608-24.696C157.824-19.224 157.464-9.648 157.392-8.064C157.392-7.776 157.176-2.232 157.248-1.944C157.248-1.512 157.464-1.224 157.824-1.008C158.112-0.864 158.472-0.720 158.760-0.576C160.632-0.072 162.144 0 164.448-0.216C165.024-0.360 165.384-0.648 165.600-1.152C165.888-2.016 166.104-2.880 166.104-3.816C166.104-4.824 166.104-5.832 166.032-6.840C166.032-7.920 165.888-17.208 165.816-18.936C165.744-20.808 165.816-22.680 165.672-24.552C165.600-26.712 165.168-31.680 165.888-31.104ZM187.776-21.240C187.560-19.584 187.560-10.584 187.488-9.864C187.344-7.416 187.272-4.968 187.416-2.448C187.560-0.576 187.992-0.072 191.736-0.144C195.984-0.144 199.728 0.144 203.976 0C204.048 0 204.192 0 204.264 0C205.488-0.144 207.504 0.072 208.728 0.072C210.240 0.072 211.896 0.144 212.976-0.288C214.056-0.936 212.688-2.160 212.184-2.808C211.824-3.240 211.536-3.672 211.248-4.104C209.952-6.048 208.872-8.136 207.360-10.008C206.784-10.656 206.352-11.376 205.920-12.024C204.624-14.112 203.400-16.128 202.104-18.144C200.088-21.096 198.576-24.192 196.848-27.216C196.776-27.288 196.776-27.360 196.704-27.432C196.416-27.864 196.488-28.296 196.704-28.800C197.208-29.592 197.640-30.384 198.144-31.176C198.792-32.328 203.400-39.888 205.128-42.552C205.992-43.848 206.784-45.144 207.864-46.368C208.152-46.728 210.168-50.184 211.248-51.408C211.680-51.984 212.040-52.632 212.328-53.280C212.544-53.928 212.328-54.360 211.608-54.648C211.176-54.864 210.744-54.936 210.240-54.936C209.592-54.936 207.504-54.936 206.784-54.936C204.480-54.936 203.472-55.080 201.096-55.152C197.568-55.152 193.392-55.584 189.936-55.224C189.576-55.224 187.992-55.008 188.136-52.848C188.136-49.176 188.208-45.576 188.208-41.976C188.208-41.328 188.064-39.168 188.064-37.368C188.280-34.704 188.280-31.176 188.208-29.736C188.208-28.944 187.992-23.328 187.776-21.240Z"/></svg>